
<svg version="1.1" xmlns="http://www.w3.org/2000/svg" width="173" height="32" viewBox="0 0 173 32">
    <path d="M75.805 0.605c-0.303 0.303-0.562 2.638-0.562 5.189 0 4.324-0.13 4.584-1.686 3.762-4.93-2.681-10.422 0.735-10.422 6.443 0 5.751 7.395 9.989 11.070 6.314 0.822-0.822 1.038-0.822 1.038 0 0 0.562 0.605 1.038 1.297 1.038 1.081 0 1.297-1.816 1.297-11.2 0-10.205-0.519-13.103-2.032-11.546zM73.903 12.584c0.735 0.778 1.341 2.292 1.341 3.416 0 4.843-6.184 6.357-8.562 2.032-2.551-4.541 3.503-9.124 7.222-5.449z"></path>
<path d="M154.335 1.081c-1.081 2.811 0 21.838 1.254 21.838 1.686 0 1.989-22.141 0.303-22.703-0.605-0.216-1.297 0.173-1.557 0.865z"></path>
<path d="M1.038 2.768c-1.254 1.254-1.341 3.459-0.259 4.627 0.476 0.476 0.519 4.713 0.087 10.335-0.778 10.768-0.778 10.811 2.551 10.811 1.341 0 4.151 0.778 6.227 1.73 10.378 4.67 20.151-1.384 18.465-11.503-0.346-1.989-0.692-6.184-0.822-9.341-0.259-7.265-0.562-7.697-5.751-7.697-10.119 0-18.032 10.508-14.227 18.941 2.724 6.011 9.859 8.086 13.924 4.022 4.281-4.281 1.773-9.124-4.713-9.124-4.454 0-4.454-1.687-0.043-3.114 5.405-1.816 10.335 1.514 10.335 6.919 0 11.2-12.238 14.962-21.276 6.486-6.876-6.443-2.508-22.573 6.4-23.481 1.773-0.216 0.259-0.432-3.33-0.519-4.108-0.087-6.919 0.259-7.568 0.908zM17.297 8.519c0 0.303-1.168 1.47-2.595 2.595s-2.595 2.768-2.595 3.676c0 1.557 0.303 1.773 2.811 1.989 1.384 0.13 2.768 1.427 3.459 3.33 0.649 1.686-2.162 3.676-4.195 2.897-0.649-0.259-1.211-0.087-1.211 0.346s-0.562 0.605-1.297 0.303c-0.735-0.259-1.297-0.995-1.297-1.6s-0.562-1.557-1.297-2.162c-2.638-2.205-1.038-9.903 2.378-11.157 2.292-0.865 5.838-0.951 5.838-0.216z"></path>
<path d="M80.519 2.897c-0.735 0.908-0.649 1.47 0.389 2.292 1.643 1.384 3.459-0.043 2.681-2.119-0.649-1.643-1.773-1.73-3.070-0.173z"></path>
<path d="M102.616 2.984c-0.649 1.687 1.816 3.632 3.070 2.378 1.168-1.168 0.259-3.632-1.341-3.632-0.692 0-1.47 0.562-1.73 1.254z"></path>
<path d="M36.541 9.211c-2.811 1.124-0.951 2.724 3.027 2.595 5.405-0.173 5.924 2.205 0.649 2.941-4.627 0.605-5.622 1.341-5.622 4.151 0 3.978 5.578 6.314 8.389 3.503 0.649-0.649 1.081-0.649 1.514 0 1.427 2.292 2.205 0.519 2.205-5.059 0-7.87-3.632-10.768-10.162-8.13zM44.108 17.557c0 1.73-1.859 3.2-4.022 3.2-2.422 0-3.373-1.427-1.989-3.070 1.297-1.557 6.011-1.687 6.011-0.13z"></path>
<path d="M49.038 9.211c-0.995 0.995-0.649 9.254 0.519 11.546 1.211 2.465 5.924 3.416 8 1.686 0.908-0.735 1.254-0.735 1.254-0.043 0 0.519 0.605 0.951 1.297 0.951 1.038 0 1.297-1.384 1.297-7.395 0-6.616-0.173-7.395-1.514-7.135-1.254 0.216-1.47 1.038-1.211 4.324 0.346 5.276-0.995 7.784-4.022 7.438-2.205-0.259-2.378-0.562-2.768-5.795-0.389-5.146-1.384-7.049-2.854-5.578z"></path>
<path d="M80.995 9.211c-1.341 1.341-0.605 14.27 0.778 13.968 0.735-0.13 1.341-0.562 1.297-0.908s-0.043-3.589-0.043-7.135c0-5.968-0.519-7.438-2.032-5.924z"></path>
<path d="M87.741 10.768c-2.897 2.897-2.897 7.568 0 10.465 5.968 5.924 16.346-1.168 12.454-8.519-2.465-4.627-8.778-5.622-12.454-1.946zM96.995 13.362c1.384 3.027 0.259 6.4-2.292 7.049-4.67 1.168-7.87-3.027-5.276-6.962 1.946-3.027 6.227-3.070 7.568-0.086z"></path>
<path d="M103.524 9.211c-0.346 0.303-0.605 4.454-0.605 9.168 0 7.87-0.13 8.649-1.73 9.038-2.508 0.649-2.162 2.854 0.432 2.854 3.676 0 4.627-2.811 4.324-12.541-0.303-7.957-0.908-10.076-2.422-8.519z"></path>
<path d="M107.935 9.124c-1.081 1.038 0.389 12.065 1.73 13.146 1.686 1.341 5.535 1.427 6.832 0.13 0.649-0.649 1.081-0.649 1.513 0 1.47 2.422 2.205 0.346 2.205-6.4 0-5.968-0.259-7.351-1.297-7.351-0.995 0-1.297 1.124-1.297 5.103 0 9.687-6.314 10.378-6.746 0.735-0.216-5.405-1.168-7.135-2.941-5.362z"></path>
<path d="M122.292 9.816c-1.081 2.897 0.087 13.103 1.557 13.362 1.254 0.259 1.513-0.562 1.73-5.103 0.476-9.687 6.097-9.73 6.573-0.043 0.389 8.087 2.768 7.524 2.768-0.692 0-7.784-4.324-11.632-8.562-7.611-0.951 0.865-1.254 0.865-1.557 0-0.519-1.427-1.946-1.384-2.508 0.086z"></path>
<path d="M138.422 10.941c-2.465 3.157-2.335 7.611 0.346 10.292 2.162 2.162 6.789 2.897 7.827 1.254 0.865-1.427 2.162-0.995 2.162 0.735 0 3.805-4.324 5.405-8.649 3.157-2.897-1.514-4.497-0.216-2.335 1.903 2.249 2.292 8.476 2.465 11.2 0.259 2.335-1.816 2.378-2.076 2.378-10.854s-0.346-10.076-2.335-8.086c-0.649 0.649-1.081 0.649-1.513 0-1.211-1.989-7.178-1.081-9.081 1.341zM147.416 12.584c3.2 3.243 0.087 8.908-4.281 7.827-1.211-0.303-2.638-1.514-3.2-2.681-2.032-4.497 3.978-8.605 7.481-5.146z"></path>
<path d="M161.557 9.816c-5.362 4.065-2.378 13.535 4.281 13.535 3.546 0 6.27-1.341 6.27-3.070 0-1.427-2.205-1.73-3.027-0.389-0.735 1.211-5.059 1.081-6.314-0.173-2.378-2.378-1.124-3.287 4.67-3.287h5.708l-0.562-2.378c-1.254-5.016-7.092-7.222-11.027-4.238zM169.341 13.189c0.259 1.254-0.346 1.514-3.676 1.514-2.162 0-3.935-0.303-3.935-0.692 0-2.897 7.092-3.676 7.611-0.822z"></path>
</svg>
