<!-- Generated by IcoMoon.io -->
<svg version="1.1" xmlns="http://www.w3.org/2000/svg" width="137" height="32" viewBox="0 0 137 32">
<title>graphic</title>
<path d="M73.532 8.443c0 7.047 0.17 8.579 0.987 8.579 0.715 0 1.055-1.021 1.192-3.847 0.374-7.013 4.63-7.217 4.63-0.204 0 3.574 0.17 4.119 1.192 3.915 1.192-0.238 1.43-5.413 0.409-8.885-0.443-1.532-3.098-2.213-4.902-1.26-1.294 0.715-1.396 0.545-1.6-2.757-0.102-2.077-0.545-3.643-1.055-3.813-0.647-0.204-0.851 1.736-0.851 8.272z"></path>
<path d="M8.647 1.804c-0.272 0.238-0.477 4.562-0.477 9.532 0 10.111 0.17 9.804-4.8 8.068-3.268-1.157-3.677-1.055-3.030 0.987 0.715 2.315 3.132 4.119 5.481 4.119 2.043 0 2.179 0.17 2.553 2.826 0.817 6.162 2.962 5.447 5.243-1.804 1.226-3.881 1.43-4.017 8.034-4.426l5.923-0.34v-19.064l-9.226-0.204c-5.072-0.102-9.43 0.034-9.702 0.306zM19.098 4.051c-1.055 1.94-2.077 2.349-2.077 0.817 0-1.226 0.783-1.94 2.247-2.077 0.272-0.034 0.204 0.511-0.17 1.26zM22.808 3.404c-0.238 0.374 0.034 0.511 0.545 0.306 0.715-0.272 1.089 0.409 1.362 2.519 0.204 1.634 0.715 3.030 1.089 3.166 1.089 0.374-0.409 3.574-2.86 6.162-2.621 2.757-9.974 6.672-10.077 5.379-0.068-0.477-0.34 0.749-0.613 2.723-0.953 6.366-2.689 7.455-2.723 1.702 0-2.077-0.136-2.213-2.417-2.213-2.519 0-5.072-0.987-5.072-1.974 0-0.306 1.192-0.238 2.621 0.136 4.323 1.157 6.604-0.647 10.315-8.238 2.928-5.957 6.128-10.349 7.591-10.349 0.374 0 0.477 0.306 0.238 0.681zM15.421 7.149c0.477 1.26-1.6 4.63-2.519 4.051-0.885-0.545-0.817-3.711 0.068-3.711 0.409 0 0.545-0.306 0.306-0.681s0.068-0.681 0.647-0.681c0.613 0 1.26 0.477 1.498 1.021z"></path>
<path d="M84.085 2.077c-0.272 0.409-0.17 1.089 0.204 1.464 0.919 0.919 3.064 0.136 2.689-0.987s-2.315-1.464-2.894-0.477z"></path>
<path d="M105.192 2.077c-0.272 0.409-0.17 1.089 0.204 1.464 0.919 0.919 3.064 0.136 2.689-0.987s-2.315-1.464-2.894-0.477z"></path>
<path d="M33.804 7.523c-4.868 3.813 0.306 11.711 5.719 8.783 1.838-0.953 1.804 0.919-0.034 2.757-1.634 1.634-2.179 1.668-4.698 0.374-1.838-0.953-2.791-0.817-2.791 0.409 0 3.166 8.613 2.791 10.111-0.477 1.6-3.506 0.749-15.251-0.919-12.562-0.272 0.443-0.851 0.477-1.702 0-1.94-1.055-3.711-0.817-5.685 0.715zM39.796 9.226c2.179 2.213 0.715 5.753-2.383 5.753-1.498 0-2.247-0.443-2.826-1.702-1.702-3.745 2.349-6.877 5.209-4.051z"></path>
<path d="M44.528 7.047c-0.783 2.111 0.034 9.634 1.089 9.634 0.749 0 1.123-1.021 1.362-3.745 0.306-3.268 0.579-3.847 2.281-4.664 1.43-0.681 1.736-1.123 1.157-1.702-0.545-0.545-1.123-0.511-2.247 0.17-1.055 0.681-1.532 0.715-1.736 0.17-0.34-1.055-1.464-0.987-1.906 0.136z"></path>
<path d="M52.255 6.877c-2.111 1.226-1.294 1.974 1.77 1.532 3.983-0.545 5.14 1.396 1.26 2.145-4.63 0.851-6.4 3.336-4.085 5.651 1.021 1.021 5.072 1.055 5.685 0.068 0.34-0.545 0.613-0.511 0.987 0.068 1.226 1.974 2.179-0.238 1.906-4.255-0.408-5.413-3.506-7.557-7.523-5.208zM57.872 12.902c0 0.919-2.008 2.757-3.030 2.757-1.498 0-2.519-1.668-1.6-2.587 0.953-0.953 4.63-1.089 4.63-0.17z"></path>
<path d="M61.719 6.604c-1.021 1.021-0.477 15.864 0.579 15.864 0.783 0 1.021-0.851 1.021-3.54 0-2.757 0.17-3.37 0.817-2.723 1.362 1.362 5.106 0.987 6.638-0.681 3.915-4.187-1.328-11.745-6.060-8.749-0.613 0.409-1.294 0.409-1.77 0-0.443-0.34-0.987-0.443-1.226-0.17zM69.072 9.226c2.111 2.145 0.715 5.753-2.247 5.753-2.281 0-3.506-1.123-3.506-3.166 0-3.132 3.574-4.732 5.753-2.587z"></path>
<path d="M84.868 6.604c-1.021 0.987-0.477 10.417 0.579 10.417 0.817 0 1.021-1.021 1.021-5.072 0-4.664-0.511-6.434-1.6-5.345z"></path>
<path d="M89.634 7.523c-5.004 3.949-0.068 11.404 5.957 9.089 2.281-0.885 1.226-2.417-1.294-1.94-2.928 0.545-4.426-0.511-4.426-3.098s1.498-3.643 4.426-3.098c2.451 0.443 2.996-0.102 1.566-1.532-1.26-1.26-4.255-0.987-6.23 0.579z"></path>
<path d="M98.485 6.604c-0.987 0.987-0.477 10.417 0.579 10.417 0.783 0 1.021-0.817 1.021-3.37 0-3.404 1.157-5.481 3.098-5.481 0.545 0 0.987-0.477 0.987-1.021 0-1.157-2.417-1.396-3.098-0.306-0.306 0.511-0.681 0.511-1.294 0-0.443-0.374-1.055-0.511-1.294-0.238z"></path>
<path d="M105.974 6.604c-1.021 0.987-0.477 10.417 0.579 10.417 0.817 0 1.021-1.021 1.021-5.072 0-4.664-0.511-6.434-1.6-5.345z"></path>
<path d="M108.936 6.979c-0.034 2.485 3.813 10.077 4.97 9.906 1.328-0.204 5.515-9.089 4.834-10.213-0.783-1.26-1.838-0.034-3.336 3.915-1.26 3.302-1.634 3.813-2.077 2.689-2.247-6.128-4.391-9.157-4.391-6.298z"></path>
<path d="M120.817 7.796c-3.54 3.574-1.192 9.226 3.847 9.226 2.247 0 4.017-0.953 4.017-2.179 0-0.306-1.226-0.374-2.723-0.136-1.77 0.306-3.064 0.136-3.745-0.409-1.838-1.532-1.089-2.043 3.064-2.043 4.63 0 5.277-1.021 2.689-4.323-1.872-2.349-4.868-2.417-7.149-0.136zM126.502 8.987c1.43 1.43 0.885 1.906-2.247 1.906-1.668 0-3.064-0.238-3.064-0.545 0-1.021 1.634-2.179 3.064-2.179 0.783 0 1.804 0.374 2.247 0.817z"></path>
<path d="M130.621 10.553c-0.068 2.417-0.136 4.8-0.17 5.277-0.034 0.443 0.477 0.919 1.123 1.055 1.021 0.204 1.191-0.306 1.191-3.438 0-3.813 0.783-5.277 2.86-5.277 0.681 0 1.226-0.306 1.226-0.715 0-1.089-1.974-1.566-2.996-0.681-0.681 0.545-1.123 0.545-1.396 0.068-1.089-1.736-1.736-0.374-1.838 3.711z"></path>
</svg>
