<!-- Generated by IcoMoon.io -->
<svg version="1.1" xmlns="http://www.w3.org/2000/svg" width="142" height="32" viewBox="0 0 142 32">
<title>photo</title>
<path d="M17.707 1.671c-0.853 1.813-1.102 1.884-6.756 1.884-6.898 0-6.791-0.107-6.756 6.933 0.036 4.8-0.178 5.724-1.636 7.289-0.924 0.96-1.849 2.738-2.098 3.911l-0.391 2.133 0.96-2.169c2.027-4.444 3.236-4.516 3.236-0.142 0 4.693 0.356 4.907 6.756 4.302 3.058-0.284 4.622-0.178 4.622 0.32 0 0.889-4.053 4.444-5.049 4.444-0.356 0-0.64 0.32-0.64 0.747 0 1.067 2.738-0.498 5.547-3.129 2.062-1.956 2.844-2.24 6.4-2.24h4.053l0.213-6.862c0.142-5.724 0.427-7.040 1.6-8.107 0.747-0.676 1.387-1.564 1.387-1.956s-0.64-0.142-1.422 0.569c-1.422 1.28-1.422 1.244-1.422-2.382v-3.662h-4.267c-4.267 0-4.978-0.427-3.413-1.991 0.462-0.462 0.64-1.031 0.356-1.28-0.249-0.249-0.818 0.356-1.28 1.387zM22.4 7.111c1.884 2.098 1.031 2.276-1.422 0.284-1.422-1.138-1.778-1.707-0.996-1.707 0.604 0 1.707 0.64 2.418 1.422zM21.013 8.853c1.671 1.671 2.418 4.658 1.138 4.658-2.987 0-7.218-3.52-7.218-6.009 0-1.209 4.551-0.178 6.080 1.351zM15.040 9.884c1.138 1.991 1.102 2.169-0.427 4.444-3.84 5.76-4.089 6.613-0.853 3.093 1.778-1.956 3.271-3.733 3.271-3.982 0.036-0.249 1.351-0.107 2.916 0.32 6.72 1.813 0.249 11.449-6.791 10.098-7.289-1.351-9.173-10.88-2.916-14.684 2.916-1.778 3.413-1.707 4.8 0.711z"></path>
<path d="M47.253 2.987c-0.924 2.453 0.036 18.702 1.102 18.702 0.818 0 1.138-1.031 1.28-4.231 0.462-8.747 5.084-8.782 5.831-0.036 0.498 5.796 1.742 5.404 1.991-0.604 0.178-3.84-0.071-5.191-0.996-6.222-1.387-1.529-4.871-1.813-5.76-0.462-0.32 0.533-0.711-0.818-0.924-3.307-0.356-4.053-1.671-6.044-2.524-3.84z"></path>
<path d="M102.898 2.596c-0.284 0.249-0.498 2.24-0.498 4.409 0 3.058-0.178 3.769-0.853 3.093-1.991-1.991-6.578-0.853-8.071 2.027-2.951 5.724 2.489 12.231 7.36 8.818 0.853-0.64 1.564-0.782 1.564-0.356 0 0.391 0.64 0.747 1.458 0.747 1.387 0 1.422-0.356 1.244-9.351-0.213-8.711-0.711-10.88-2.204-9.387zM101.547 12.231c3.058 3.058-0.924 9.031-4.48 6.684-3.342-2.204-2.098-7.538 1.778-7.538 1.031 0 2.24 0.391 2.702 0.853z"></path>
<path d="M73.138 6.187c-0.142 0.32-0.178 3.698-0.036 7.538 0.249 7.467 1.316 9.209 4.622 7.502 1.529-0.818 0.924-2.027-0.96-2.027-2.133 0-2.062-7.609 0.071-7.964 1.956-0.284 2.098-1.6 0.178-1.849-0.924-0.142-1.636-0.818-1.778-1.742-0.213-1.493-1.636-2.489-2.098-1.458z"></path>
<path d="M33.422 18.098c0 5.724 0.284 8.996 0.782 9.316 1.316 0.818 2.027-1.209 1.564-4.444l-0.391-3.058 2.24 1.138c4.267 2.133 7.893-0.604 7.893-5.938 0-4.622-5.476-7.822-8.462-4.978-0.782 0.711-1.031 0.711-1.28 0-1.387-3.733-2.347-0.427-2.347 7.964zM42.276 12.48c2.453 2.453 0.64 6.898-2.809 6.898-1.138 0-2.453-0.569-2.951-1.28-2.88-3.947 2.347-8.996 5.76-5.618z"></path>
<path d="M60.764 10.987c-3.733 3.733-0.853 11.058 4.302 11.058 0.924 0 2.667-0.818 3.84-1.849 4.48-3.769 1.956-10.951-3.84-10.951-1.778 0-3.093 0.533-4.302 1.742zM67.662 12.551c2.667 2.382 0.96 6.827-2.596 6.827-3.484 0-5.156-4.053-2.738-6.684 1.458-1.636 3.627-1.671 5.333-0.142z"></path>
<path d="M80.676 11.129c-5.013 5.44 1.707 13.476 8 9.564 3.733-2.347 3.876-7.787 0.284-10.524-2.098-1.6-6.364-1.102-8.284 0.96zM88.036 12.231c1.564 1.564 1.031 5.404-0.924 6.684-3.733 2.453-7.431-3.058-4.48-6.649 0.924-1.138 4.302-1.138 5.404-0.036z"></path>
<path d="M107.164 9.707c-0.747 0.747-0.604 7.004 0.213 9.102 0.996 2.702 3.733 3.733 5.938 2.311 1.564-1.031 1.813-1.031 2.169-0.071 0.96 2.524 1.849-0.213 1.849-5.796 0-4.871-0.213-6.009-1.067-6.009-1.173 0-1.244 0.356-1.067 4.764 0.142 3.698-2.027 6.364-4.267 5.191-1.067-0.569-1.387-1.636-1.564-5.12-0.213-4.018-0.996-5.582-2.204-4.373z"></path>
<path d="M119.218 9.707c-0.569 0.604-0.604 11.236-0.036 11.804 1.351 1.351 2.418-0.604 2.418-4.373 0-4.231 0.818-5.76 2.987-5.76 1.707 0 2.916 3.236 2.347 6.258-0.462 2.418 0.64 4.764 1.849 4.018 1.102-0.711 0.747-9.102-0.462-10.844-1.244-1.742-4.444-2.133-5.938-0.676-0.782 0.711-1.031 0.711-1.28 0-0.356-0.96-1.138-1.138-1.884-0.427z"></path>
<path d="M132.373 10.88c-1.529 1.636-2.062 5.44-1.102 7.929 1.173 2.987 7.467 3.947 9.529 1.458 1.422-1.707 0.142-2.453-2.169-1.316-1.92 0.996-2.311 0.96-3.911-0.071-2.738-1.778-2.098-2.453 2.702-2.667 3.876-0.178 4.48-0.391 4.658-1.671 0.64-4.48-6.4-7.147-9.707-3.662zM139.378 12.8c0.711 1.351 0.533 1.422-2.809 1.422-3.662 0-4.267-0.462-2.738-1.991 1.387-1.387 4.693-1.031 5.547 0.569z"></path>
</svg>
