<!-- Generated by IcoMoon.io -->
<svg version="1.1" xmlns="http://www.w3.org/2000/svg" width="187" height="32" viewBox="0 0 187 32">
<title>theme</title>
<path d="M49.365 1.176c-1.224 3.2 0 22.824 1.459 22.824 1.035 0 1.553-1.459 1.882-5.553 0.847-9.741 6.259-9.741 6.776 0 0.376 7.153 2.118 6.824 2.447-0.424 0.424-8.518-2.024-10.918-8.282-8.235-1.129 0.471-1.412-0.329-1.412-4.282 0-4.706-1.694-7.341-2.871-4.329z"></path>
<path d="M123.059 1.035c-0.894 0.518-1.929 2.588-2.212 4.659-0.376 2.212-1.129 3.718-1.929 3.718-1.788 0-1.6 1.694 0.282 2.071 1.224 0.235 1.553 1.553 1.647 6.4 0.141 8.988 2.824 8.8 3.2-0.235 0.188-4.8 0.612-6.353 1.647-6.353 0.753 0 1.365-0.424 1.365-0.941s-0.612-0.941-1.412-0.941c-2.635 0-1.788-5.553 0.988-6.588 1.318-0.518 2.165-1.365 1.835-1.882-0.753-1.176-3.294-1.176-5.412 0.094z"></path>
<path d="M0.376 2.024c-0.941 1.553 2.447 3.859 3.906 2.635 1.694-1.412 8.094-1.694 10.306-0.518 3.2 1.741 3.247 2.729 0.282 6.118-1.6 1.788-3.906 5.506-5.082 8.235-2.024 4.565-2.447 4.941-5.741 5.224-5.976 0.471-5.082 3.953 1.129 4.329 2.729 0.188 5.412 0.988 6.447 1.882 2.024 1.835 14.212 2.024 18.776 0.282 2.494-0.988 6.165-7.106 4.941-8.329-0.282-0.282 0-1.129 0.612-1.882 1.553-1.882-1.365-4-5.553-4h-3.106v-15.059h-13.129c-8.894 0-13.318 0.329-13.788 1.082zM24.753 16.235c-0.235 0.376-1.647 0.706-3.2 0.706s-2.588 0.424-2.306 0.894c0.329 0.471 2.635 0.659 5.129 0.329 7.953-0.941 9.506 9.318 1.694 10.965-17.365 3.765-21.835-10.071-6.4-19.859l4.329-2.776 0.565 4.518c0.329 2.494 0.424 4.847 0.188 5.224z"></path>
<path d="M41.129 5.318c-3.624 3.624 0.612 20.047 4.8 18.729 2.588-0.8 2.682-2.4 0.188-2.4-1.647 0-1.882-0.612-1.882-5.176s0.235-5.176 1.882-5.176c1.035 0 1.882-0.424 1.882-0.941s-0.8-0.941-1.835-0.941c-1.129 0-1.929-0.753-2.118-2.024-0.282-2.165-1.788-3.2-2.918-2.071z"></path>
<path d="M180.424 5.318c-3.624 3.624 0.612 20.047 4.8 18.729 2.588-0.8 2.682-2.4 0.188-2.4-1.647 0-1.882-0.612-1.882-5.176s0.235-5.176 1.882-5.176c1.035 0 1.882-0.424 1.882-0.941s-0.8-0.941-1.835-0.941c-1.129 0-1.929-0.753-2.118-2.024-0.282-2.165-1.788-3.2-2.918-2.071z"></path>
<path d="M66.306 10.776c-6.353 6.353 1.176 16.941 9.035 12.706 1.929-0.988 2.541-3.718 0.894-3.718-0.518 0-1.788 0.518-2.776 1.129-1.365 0.847-2.353 0.847-4.235 0-3.294-1.506-3.2-4.141 0.188-3.859 6.4 0.471 8.706-0.047 8.706-2.024 0-2.682-4.141-6.541-7.059-6.541-1.318 0-3.482 1.035-4.753 2.306zM74.165 12.424c1.976 1.976 1.224 2.635-3.106 2.635-2.306 0-4.235-0.329-4.235-0.753 0-1.412 2.259-3.012 4.235-3.012 1.082 0 2.494 0.518 3.106 1.129z"></path>
<path d="M79.812 15.294c-0.659 10.635 2.118 13.506 3.012 3.059 0.894-10.118 6.588-9.553 6.588 0.659 0 7.482 2.165 7.012 2.824-0.659 0.847-9.741 6.259-9.6 6.776 0.235 0.424 8.094 2.635 7.718 2.635-0.471 0-8.424-4.565-12.894-8.424-8.282-1.035 1.224-1.459 1.176-3.482-0.141-1.788-1.176-2.776-1.271-4.565-0.471-1.459 0.659-2.494 0.706-2.824 0.141-1.412-2.212-2.165-0.424-2.541 5.929z"></path>
<path d="M105.835 10.776c-6.353 6.353 1.176 16.941 9.035 12.706 1.929-0.988 2.541-3.718 0.894-3.718-0.518 0-1.788 0.518-2.776 1.129-2.165 1.365-6.635-0.282-6.635-2.447 0-1.082 1.224-1.365 5.412-1.224 6.494 0.235 7.859-2.165 3.624-6.4-3.012-2.965-6.588-3.012-9.553-0.047zM113.694 12.424c1.976 1.976 1.224 2.635-3.106 2.635-2.306 0-4.235-0.329-4.235-0.753 0-1.412 2.259-3.012 4.235-3.012 1.082 0 2.494 0.518 3.106 1.129z"></path>
<path d="M131.153 9.553c-2.165 1.082-4.094 4.518-4.094 7.341 0 6.541 7.718 9.741 12.847 5.365 6.965-5.976-0.424-16.706-8.753-12.706zM137.459 12.282c2.824 1.506 2.541 7.2-0.471 8.565-4.706 2.165-8.706-2.729-5.788-7.153 1.647-2.588 3.388-2.965 6.259-1.412z"></path>
<path d="M144.659 9.082c-1.082 1.035-0.753 14.259 0.329 14.965 1.647 0.988 2.212-0.282 1.976-4.282-0.282-4.612 1.082-7.341 4.282-8.565 1.835-0.659 2.212-1.176 1.412-1.976s-1.694-0.8-3.341-0.047c-1.412 0.659-2.588 0.706-3.153 0.141-0.471-0.471-1.176-0.612-1.506-0.235z"></path>
<path d="M154.682 10.682c-7.294 6.306 1.741 18.024 9.224 12 2.541-2.071 1.647-3.906-1.129-2.165-2.306 1.459-4.894 1.459-6.353 0-2.494-2.494-1.224-3.482 4.282-3.294l5.412 0.188-0.188-2.824c-0.424-5.741-6.635-7.859-11.247-3.906zM162.824 13.176c0.941 1.741 0.706 1.882-3.247 1.882-4.376 0-5.129-0.659-3.153-2.635 1.741-1.741 5.271-1.318 6.4 0.753z"></path>
<path d="M169.082 10.212c-2.918 3.2-1.647 5.976 3.388 7.247 3.388 0.847 3.624 4.188 0.282 4.188-1.271 0-2.541-0.424-2.871-0.941-0.894-1.412-2.353-1.129-2.353 0.471 0 1.976 4.047 3.671 6.965 2.918 5.412-1.365 5.035-7.388-0.565-8.8-1.647-0.424-3.153-1.318-3.341-1.929-0.565-1.647 2.541-2.541 4.565-1.318 2.4 1.506 3.576-0.612 1.271-2.306-2.4-1.788-5.506-1.6-7.341 0.471z"></path>
</svg>
